<svg width="21" height="16" viewBox="0 0 21 16" fill="none" xmlns="http://www.w3.org/2000/svg">
<path fill-rule="evenodd" clip-rule="evenodd" d="M14.0481 8C14.0481 9.84095 12.4745 11.3333 10.5334 11.3333C8.59223 11.3333 7.01861 9.84095 7.01861 8C7.01861 6.15905 8.59223 4.66667 10.5334 4.66667C12.4745 4.66667 14.0481 6.15905 14.0481 8ZM12.2908 8C12.2908 8.92048 11.5039 9.66667 10.5334 9.66667C9.5628 9.66667 8.77599 8.92048 8.77599 8C8.77599 7.07953 9.5628 6.33333 10.5334 6.33333C11.5039 6.33333 12.2908 7.07953 12.2908 8Z" fill="#008493"/>
<path fill-rule="evenodd" clip-rule="evenodd" d="M10.5334 0.5C15.4466 0.5 19.5749 3.68693 20.7455 8C19.5749 12.3131 15.4466 15.5 10.5334 15.5C5.62016 15.5 1.49182 12.3131 0.321289 8C1.49182 3.68693 5.62016 0.5 10.5334 0.5ZM10.5334 13.8333C6.60074 13.8333 3.26777 11.3818 2.14824 8C3.26777 4.61822 6.60074 2.16667 10.5334 2.16667C14.466 2.16667 17.799 4.61822 18.9185 8C17.799 11.3818 14.466 13.8333 10.5334 13.8333Z" fill="#008493"/>
</svg>
