<svg width="22" height="24" viewBox="0 0 22 24" fill="none" xmlns="http://www.w3.org/2000/svg">
<path fill-rule="evenodd" clip-rule="evenodd" d="M17.7608 10.2857C19.6945 10.2857 21.2621 11.8207 21.2621 13.7143V20.5714C21.2621 22.465 19.6945 24 17.7608 24H3.75568C1.82197 24 0.254395 22.465 0.254395 20.5714V13.7143C0.254395 11.8207 1.82197 10.2857 3.75568 10.2857V6.85714C3.75568 3.07005 6.89084 0 10.7583 0C14.6257 0 17.7608 3.07005 17.7608 6.85714V10.2857ZM10.7583 2.28571C13.3365 2.28571 15.4266 4.33241 15.4266 6.85714V10.2857H6.08987V6.85714C6.08987 4.33241 8.17998 2.28571 10.7583 2.28571ZM17.7608 12.5714H3.75568C3.11111 12.5714 2.58859 13.0831 2.58859 13.7143V20.5714C2.58859 21.2026 3.11111 21.7143 3.75568 21.7143H17.7608C18.4054 21.7143 18.9279 21.2026 18.9279 20.5714V13.7143C18.9279 13.0831 18.4054 12.5714 17.7608 12.5714Z" fill="#008493"/>
</svg>
