<svg width="23" height="24" viewBox="0 0 23 24" fill="none" xmlns="http://www.w3.org/2000/svg">
<path d="M21.5212 19.5859C20.9593 18.2387 20.1439 17.015 19.1204 15.9829C18.1 14.9479 16.8912 14.1226 15.5608 13.5528C15.5489 13.5467 15.537 13.5437 15.5251 13.5377C17.3808 12.1809 18.5872 9.97085 18.5872 7.47739C18.5872 3.34673 15.2808 0 11.2 0C7.11918 0 3.81282 3.34673 3.81282 7.47739C3.81282 9.97085 5.01919 12.1809 6.87492 13.5407C6.86301 13.5467 6.85109 13.5497 6.83918 13.5558C5.50472 14.1256 4.30728 14.9427 3.27963 15.9859C2.25707 17.0188 1.44178 18.2423 0.878792 19.5889C0.325713 20.9073 0.0274247 22.3207 7.44855e-05 23.7528C-0.000720546 23.7849 0.00485567 23.817 0.0164747 23.8469C0.0280938 23.8769 0.0455205 23.9042 0.067728 23.9272C0.0899355 23.9503 0.116475 23.9686 0.145781 23.9811C0.175088 23.9936 0.20657 24 0.238371 24H2.02559C2.15666 24 2.26091 23.8945 2.26389 23.7648C2.32346 21.4372 3.24686 19.2573 4.87919 17.605C6.56812 15.8955 8.81108 14.9548 11.2 14.9548C13.5889 14.9548 15.8319 15.8955 17.5208 17.605C19.1531 19.2573 20.0765 21.4372 20.1361 23.7648C20.1391 23.8975 20.2433 24 20.3744 24H22.1616C22.1934 24 22.2249 23.9936 22.2542 23.9811C22.2835 23.9686 22.3101 23.9503 22.3323 23.9272C22.3545 23.9042 22.3719 23.8769 22.3835 23.8469C22.3951 23.817 22.4007 23.7849 22.3999 23.7528C22.3701 22.3116 22.0752 20.9095 21.5212 19.5859ZM11.2 12.6633C9.83278 12.6633 8.54598 12.1236 7.5779 11.1437C6.60982 10.1638 6.07663 8.86131 6.07663 7.47739C6.07663 6.09347 6.60982 4.79095 7.5779 3.81105C8.54598 2.83116 9.83278 2.29146 11.2 2.29146C12.5672 2.29146 13.854 2.83116 14.8221 3.81105C15.7902 4.79095 16.3234 6.09347 16.3234 7.47739C16.3234 8.86131 15.7902 10.1638 14.8221 11.1437C13.854 12.1236 12.5672 12.6633 11.2 12.6633Z" fill="#008493"/>
</svg>
