<svg width="22" height="24" viewBox="0 0 22 24" fill="none" xmlns="http://www.w3.org/2000/svg">
<path d="M5.32505 0.633256C4.52995 -0.212004 3.53735 -0.212004 2.74731 0.63878C2.50416 0.899606 2.26507 1.16308 2.02613 1.42639C1.66788 1.82117 1.30999 2.21556 0.939345 2.6M5.32505 0.633256L4.66797 1.24827C4.66825 1.24857 4.66853 1.24887 4.66881 1.24917M5.32505 0.633256C5.65255 0.983146 5.97554 1.33795 6.29853 1.69275C6.46003 1.87015 6.62152 2.04755 6.78358 2.22433L6.11692 2.82895C6.11746 2.82955 6.11801 2.83015 6.11855 2.83075C5.95246 2.64955 5.78924 2.47025 5.62724 2.2923C5.3072 1.94072 4.99195 1.59442 4.66881 1.24917M5.32505 0.633256L4.6695 1.2499C4.66927 1.24966 4.66904 1.24941 4.66881 1.24917M4.66881 1.24917C4.3994 0.963052 4.17712 0.899782 4.03568 0.900001C3.89474 0.900219 3.6738 0.963679 3.40682 1.2512L3.40562 1.25248C3.18132 1.49309 2.94838 1.74964 2.71091 2.01119C2.3422 2.41727 1.96254 2.83541 1.58726 3.22467L1.58597 3.226C1.18075 3.64457 0.963299 4.15944 0.91538 4.82381M0.91538 4.82381C0.915401 4.82351 0.915422 4.82321 0.915443 4.82291L0.0176372 4.76011M0.91538 4.82381C0.91536 4.82409 0.91534 4.82437 0.91532 4.82465L0.0176372 4.76011M0.91538 4.82381C0.831525 6.02512 1.09843 7.19074 1.51686 8.40617L1.51787 8.40913C2.37109 10.9158 3.67438 13.1552 5.27281 15.2262L5.27311 15.2266C7.42287 18.0151 9.9792 20.2102 12.963 21.7926C14.3086 22.5052 15.625 23.0098 17.0165 23.0927L17.0178 23.0928C17.8686 23.1449 18.5079 22.9253 19.0465 22.2667L19.0473 22.2658C19.4054 21.8292 19.814 21.3957 20.195 20.9915C20.3803 20.7949 20.5591 20.6052 20.7224 20.4254C21.0048 20.1133 21.0991 19.8257 21.1 19.5915C21.1009 19.3586 21.0099 19.0774 20.7342 18.7747C19.7742 17.7219 18.8089 16.6744 17.8417 15.6249C17.5713 15.3341 17.3497 15.2715 17.2117 15.2715C17.074 15.2715 16.854 15.3337 16.5862 15.624L16.5856 15.6247C15.9821 16.2775 15.3845 16.9238 14.7979 17.5802L14.1269 16.9805L14.7995 17.5784C14.6736 17.7201 14.4409 17.9455 14.0838 18.0234C13.6978 18.1077 13.3755 17.9782 13.1659 17.8507C13.0317 17.771 12.8969 17.6987 12.7431 17.6162C12.6995 17.5928 12.6542 17.5685 12.6071 17.543C12.4033 17.4329 12.1724 17.3047 11.9454 17.1508L11.9414 17.148C10.0906 15.8781 8.55909 14.2583 7.2224 12.4698L7.22203 12.4693C6.54893 11.5674 5.92738 10.5721 5.48816 9.43202C5.48809 9.43184 5.48802 9.43165 5.48795 9.43146L6.32779 9.10795C6.24676 8.89802 6.26195 8.7599 6.41895 8.58864L0.665871 8.69913C0.230339 7.434 -0.0785851 6.13573 0.0176372 4.76011M0.0176372 4.76011C0.0784091 3.91485 0.367076 3.19113 0.939345 2.6M0.939345 2.6L0.939375 2.60003L0.939345 2.6Z" stroke="#008493" stroke-width="1.8"/>
</svg>
