<svg width="26" height="27" viewBox="0 0 26 27" fill="none" xmlns="http://www.w3.org/2000/svg">
<g clip-path="url(#clip0)">
<path d="M25.6823 24.6514L18.2886 17.2577C19.7208 15.4886 20.5831 13.2407 20.5831 10.7924C20.5831 5.11799 15.966 0.500854 10.2915 0.500854C4.61709 0.500854 0 5.11794 0 10.7924C0 16.4668 4.61714 21.084 10.2916 21.084C12.7399 21.084 14.9878 20.2217 16.7568 18.7895L24.1505 26.1832C24.3618 26.3944 24.6391 26.5006 24.9164 26.5006C25.1938 26.5006 25.4711 26.3944 25.6824 26.1832C26.1059 25.7596 26.1059 25.0749 25.6823 24.6514ZM10.2916 18.9173C5.81094 18.9173 2.16666 15.273 2.16666 10.7924C2.16666 6.31175 5.81094 2.66747 10.2916 2.66747C14.7722 2.66747 18.4165 6.31175 18.4165 10.7924C18.4165 15.273 14.7722 18.9173 10.2916 18.9173Z" fill="#2F4858" fill-opacity="0.7"/>
</g>
<defs>
<clipPath id="clip0">
<rect width="26" height="26" fill="white" transform="translate(0 0.5)"/>
</clipPath>
</defs>
</svg>
