<svg width="450" height="255" viewBox="0 0 450 255" fill="none" xmlns="http://www.w3.org/2000/svg">
<g clip-path="url(#clip0_181:768)">
<path d="M383.952 161.896C384.358 161.795 384.738 161.607 385.064 161.343C385.39 161.079 385.654 160.747 385.838 160.37C386.023 159.993 386.122 159.58 386.13 159.16C386.138 158.74 386.054 158.323 385.884 157.939L393.316 150.964L388.175 149.724L381.905 156.538C381.281 156.867 380.8 157.414 380.551 158.076C380.303 158.738 380.305 159.468 380.557 160.129C380.809 160.789 381.294 161.334 381.92 161.66C382.545 161.985 383.268 162.069 383.952 161.896Z" fill="#FFB6B6"/>
<path d="M387.791 156.277L384.325 151.373L397.344 137.861L400.367 116.561C400.516 115.508 400.895 114.502 401.476 113.612C402.056 112.723 402.825 111.972 403.728 111.415C404.63 110.857 405.643 110.505 406.696 110.385C407.749 110.264 408.816 110.378 409.82 110.718C411.633 111.333 413.129 112.645 413.979 114.366C414.83 116.087 414.965 118.076 414.355 119.897L406.643 142.86L387.791 156.277Z" fill="#E4E4E4"/>
<path d="M412.236 247.031H408.388L406.558 232.138L412.237 232.138L412.236 247.031Z" fill="#FFB6B6"/>
<path d="M414.306 254.362H411.576L411.089 251.775L409.84 254.362H402.599C402.252 254.362 401.914 254.251 401.634 254.044C401.355 253.838 401.148 253.547 401.045 253.215C400.942 252.882 400.947 252.525 401.06 252.196C401.173 251.867 401.388 251.582 401.674 251.384L407.457 247.377V244.762L413.539 245.126L414.306 254.362Z" fill="#2F2E41"/>
<path d="M435.974 243.102L432.595 244.947L423.893 232.744L428.881 230.02L435.974 243.102Z" fill="#FFB6B6"/>
<path d="M441.284 248.548L438.886 249.858L437.226 247.82L437.362 250.69L431.001 254.164C430.696 254.33 430.346 254.395 430.002 254.347C429.659 254.3 429.339 254.144 429.09 253.901C428.84 253.659 428.675 253.343 428.618 252.999C428.56 252.656 428.614 252.303 428.77 251.992L431.941 245.698L430.695 243.401L436.211 240.804L441.284 248.548Z" fill="#2F2E41"/>
<path d="M413.857 241.728H405.905V213.313L400.982 194.789C397.449 181.541 396.51 167.731 398.218 154.125L398.224 154.069L398.267 154.033C398.394 153.926 410.993 143.472 418.963 151.47C424.335 156.86 419.287 176.244 419.004 177.308V210.723L413.857 241.728Z" fill="#2F2E41"/>
<path d="M413.837 107.75L413.795 107.708L403.656 107.862L398.243 120.612C393.232 128.422 398.024 132.864 398.36 133.568L397.402 143.151L396.785 149.334L395.794 159.287L419.031 151.67L416.446 141.279L419.433 126.292C420.096 122.978 419.932 119.551 418.956 116.316C417.98 113.081 416.221 110.138 413.837 107.75Z" fill="#E4E4E4"/>
<path d="M409.113 213.46L425.448 236.517L431.714 232.046L418.072 203.913L409.113 213.46Z" fill="#2F2E41"/>
<path d="M407.779 105.272C412.948 105.272 417.139 101.067 417.139 95.8791C417.139 90.6915 412.948 86.4862 407.779 86.4862C402.609 86.4862 398.418 90.6915 398.418 95.8791C398.418 101.067 402.609 105.272 407.779 105.272Z" fill="#FFB6B6"/>
<path opacity="0.1" d="M416.806 132.217L406.597 144.038L396.785 149.333L397.402 143.151L403.18 139.896L416.806 132.217Z" fill="black"/>
<path d="M401.223 113.482L400.345 109.62C400.056 108.327 400.028 106.99 400.262 105.687C400.497 104.383 400.989 103.14 401.709 102.031C402.371 100.984 402.74 99.7786 402.778 98.5399C402.815 97.3011 402.519 96.0752 401.921 94.991C401.479 94.1145 400.809 93.3749 399.981 92.8515C399.153 92.3281 398.198 92.0405 397.22 92.0196H396.986V91.7851C396.986 88.417 399.602 86.0398 402.034 85.9035C402.122 85.2027 402.617 84.5744 403.479 84.0755C405.538 82.8843 409.519 82.6259 412.527 84.2137C412.583 83.7003 412.776 83.2116 413.086 82.7994C413.396 82.3871 413.811 82.0668 414.288 81.8722C414.782 81.6997 415.314 81.669 415.825 81.7835C415.869 80.9391 416.216 80.1394 416.803 79.5325C417.633 78.7249 418.965 78.418 420.458 78.6887C422.509 79.062 424.529 80.3726 426.148 82.3795C427.584 84.1587 428.58 86.2555 429.544 88.2833C430.492 90.2775 431.472 92.3396 432.892 94.0856C434.449 95.9983 436.377 97.2376 438.322 97.5752C440.59 97.9692 442.919 97.0319 443.984 95.2967L444.196 94.9522L444.388 95.3077C445.585 97.5148 445.096 100.547 443.224 102.519C441.545 104.287 438.911 105.187 436.18 104.926C433.867 104.705 431.535 103.719 429.247 101.995C426.974 100.283 425.569 98.3897 425.07 96.3689C424.93 95.7436 424.83 95.1101 424.77 94.4722C424.615 93.136 424.469 91.8737 423.65 90.9447C422.914 90.1094 421.774 89.7475 420.764 89.4741L420.566 89.4207C420.53 89.797 420.412 90.1609 420.221 90.487C420.031 90.8131 419.771 91.0935 419.461 91.3087C419.275 91.421 419.071 91.4999 418.858 91.5419C420.03 96.2727 419.548 99.8948 417.426 102.31C413.843 106.386 406.958 105.548 406.667 105.51L406.473 105.485L406.463 105.289C406.437 104.764 406.373 104.241 406.272 103.725C405.286 106.109 401.969 112.413 401.525 113.049L401.223 113.482Z" fill="#2F2E41"/>
<path d="M70.6694 128.648C70.3957 129.01 70.0464 129.306 69.6461 129.517C69.2458 129.728 68.8043 129.849 68.3525 129.87C67.9008 129.892 67.4499 129.813 67.0315 129.641C66.6132 129.469 66.2377 129.206 65.9313 128.872L55.8506 133.272L56.8325 127.625L66.2548 124.313C66.8478 123.833 67.5953 123.589 68.3558 123.626C69.1163 123.663 69.837 123.978 70.3811 124.513C70.9253 125.047 71.2552 125.763 71.3083 126.526C71.3614 127.288 71.1341 128.043 70.6694 128.648V128.648Z" fill="#A0616A"/>
<path d="M63.9424 130.411L40.5282 140.877L40.478 140.859L13.7918 131.316C11.804 130.274 10.2886 128.508 9.5557 126.381C8.82285 124.254 8.92805 121.926 9.84975 119.874C10.3606 118.741 11.105 117.729 12.0339 116.904C12.9627 116.08 14.055 115.463 15.2387 115.093C16.4225 114.723 17.6709 114.608 18.9019 114.758C20.1328 114.907 21.3184 115.316 22.3805 115.958L42.24 127.962L61.4975 125.458L63.9424 130.411Z" fill="#3F3D56"/>
<path d="M73.7518 61.5028C64.9003 41.8557 65.2267 16.9522 78.9638 0.37323C83.5597 23.3627 96.1109 43.9799 114.397 58.5771C121.469 64.181 129.917 69.6749 131.849 78.5075C133.051 84.0033 131.347 89.8163 128.401 94.6036C125.455 99.391 121.348 103.329 117.289 107.21L116.833 108.538C99.1672 96.2648 82.6032 81.1498 73.7518 61.5028Z" fill="#F0F0F0"/>
<path d="M79.3466 0.612963C76.1852 17.9847 78.5337 36.4825 86.218 52.3982C87.8793 55.8392 89.863 59.1847 92.5189 61.9522C95.1283 64.6298 98.4047 66.5573 102.008 67.5345C105.349 68.5134 108.879 69.1265 111.925 70.9033C115.135 72.7762 117.128 75.9188 117.904 79.5226C118.853 83.9319 118.168 88.4207 117.345 92.787C116.431 97.6349 115.406 102.656 116.73 107.529C116.89 108.12 115.968 108.335 115.807 107.745C113.504 99.2665 117.982 90.904 117.356 82.3793C117.064 78.4015 115.576 74.488 112.177 72.1833C109.205 70.1679 105.565 69.5326 102.173 68.5708C98.6122 67.5609 95.4141 66.0182 92.6928 63.4593C89.909 60.8417 87.7908 57.567 86.0491 54.1838C82.1566 46.4823 79.495 38.2145 78.1619 29.6834C76.5865 19.9553 76.6812 10.0285 78.4416 0.332488C78.5508 -0.267588 79.4551 0.0167993 79.3466 0.612963Z" fill="white"/>
<path d="M83.4483 47.3571C80.5807 48.2793 77.4798 48.1486 74.6993 46.9884C71.9189 45.8281 69.6399 43.7139 68.2695 41.0231C67.9941 40.4777 68.8257 40.0226 69.1015 40.5688C70.373 43.0767 72.496 45.0459 75.0874 46.1211C77.6787 47.1962 80.5677 47.3063 83.2329 46.4317C83.8123 46.2423 84.0243 47.1688 83.4483 47.3571L83.4483 47.3571Z" fill="white"/>
<path d="M100.248 67.2621C103.113 61.7951 103.82 55.4451 102.227 49.4784C102.069 48.8873 102.991 48.6719 103.149 49.2623C104.795 55.4745 104.047 62.0811 101.052 67.7636C100.767 68.3051 99.9637 67.8006 100.248 67.2621Z" fill="white"/>
<path d="M77.8038 20.264C78.9875 20.1392 80.1217 19.7213 81.1046 19.0479C82.0875 18.3745 82.8884 17.4666 83.4353 16.4059C83.714 15.8611 84.5166 16.3662 84.2396 16.9074C83.63 18.0766 82.7443 19.0781 81.6599 19.8245C80.5756 20.571 79.3256 21.0396 78.0192 21.1894C77.8972 21.2139 77.7705 21.1908 77.6649 21.125C77.5592 21.0591 77.4826 20.9553 77.4504 20.8348C77.4225 20.7121 77.444 20.5833 77.5102 20.4764C77.5763 20.3696 77.6819 20.2932 77.8038 20.264Z" fill="white"/>
<path d="M151.713 0.565674C151.549 0.910825 151.385 1.25597 151.224 1.60818C149.037 6.25996 147.23 11.0823 145.822 16.0277C145.707 16.4083 145.596 16.7958 145.492 17.1789C142.225 29.1298 141.198 41.5855 142.462 53.9127C142.969 58.8176 143.848 63.6766 145.09 68.4477C146.806 75.0367 149.189 82.0438 148.651 88.6231C148.602 89.3101 148.512 89.9935 148.379 90.6693L118.483 108.993C118.395 109 118.31 109.015 118.221 109.023L117.06 109.809C116.979 109.567 116.9 109.315 116.819 109.073C116.771 108.934 116.73 108.789 116.683 108.65C116.653 108.555 116.624 108.46 116.591 108.376C116.581 108.345 116.572 108.313 116.566 108.289C116.534 108.205 116.513 108.124 116.485 108.047C116.039 106.638 115.602 105.223 115.175 103.803C115.171 103.796 115.171 103.796 115.173 103.785C111.944 92.9553 109.587 81.7594 108.998 70.5606C108.981 70.2236 108.959 69.88 108.955 69.5347C108.717 64.4853 108.892 59.4249 109.476 54.404C109.805 51.6557 110.272 48.9259 110.875 46.225C112.449 39.2494 115.106 32.5656 118.749 26.4185C126.014 14.1655 137.103 4.38037 150.674 0.826981C151.021 0.736285 151.362 0.64946 151.713 0.565674Z" fill="#F0F0F0"/>
<path d="M151.878 0.987656C138.931 12.948 129.708 29.1363 126.294 46.4868C125.556 50.2379 125.133 54.1076 125.593 57.9218C126.07 61.6363 127.529 65.1548 129.82 68.1118C131.9 70.9119 134.351 73.5345 135.717 76.7933C137.157 80.2283 136.862 83.9412 135.319 87.2876C133.432 91.3819 130.191 94.5516 126.915 97.5408C123.277 100.86 119.446 104.249 117.579 108.94C117.352 109.508 116.487 109.123 116.713 108.555C119.961 100.394 128.553 96.4223 133.168 89.2377C135.322 85.8852 136.481 81.8612 135.15 77.9676C133.986 74.5628 131.461 71.8563 129.33 69.0393C127.093 66.0815 125.465 62.9176 124.827 59.2303C124.175 55.4584 124.449 51.564 125.088 47.8104C126.601 39.3094 129.436 31.1001 133.49 23.483C138.069 14.7639 144.1 6.89509 151.323 0.21696C151.771 -0.196188 152.322 0.577206 151.878 0.987649V0.987656Z" fill="white"/>
<path d="M127.107 40.7883C124.264 39.7921 121.867 37.8143 120.343 35.2081C118.819 32.6018 118.268 29.5368 118.788 26.5605C118.895 25.9586 119.832 26.0977 119.725 26.7004C119.235 29.471 119.749 32.326 121.173 34.7501C122.597 37.1741 124.838 39.0075 127.491 39.9193C128.067 40.1182 127.68 40.986 127.107 40.7883H127.107Z" fill="white"/>
<path d="M128.579 66.8314C134.147 64.1975 138.521 59.5544 140.829 53.8279C141.057 53.2604 141.923 53.6457 141.695 54.2125C139.282 60.1671 134.72 64.9897 128.92 67.7178C128.367 67.9774 128.029 67.0896 128.579 66.8314Z" fill="white"/>
<path d="M138.856 15.7459C139.876 16.3613 141.032 16.7129 142.221 16.7691C143.41 16.8253 144.594 16.5843 145.667 16.0677C146.216 15.8012 146.554 16.6893 146.008 16.9541C144.82 17.5193 143.512 17.7839 142.198 17.7247C140.885 17.6656 139.605 17.2846 138.472 16.6149C138.36 16.5607 138.273 16.4658 138.228 16.3494C138.183 16.233 138.184 16.1038 138.231 15.9881C138.282 15.8733 138.377 15.7834 138.494 15.7381C138.611 15.6927 138.741 15.6955 138.856 15.7459Z" fill="white"/>
<path d="M266.34 71.8225C257.489 52.1754 257.815 27.2719 271.552 10.6929C276.148 33.6824 288.699 54.2996 306.985 68.8968C314.058 74.5007 322.505 79.9946 324.437 88.8272C325.64 94.323 323.936 100.136 320.99 104.923C318.043 109.711 313.937 113.649 309.877 117.53L309.421 118.858C291.756 106.584 275.192 91.4695 266.34 71.8225Z" fill="#F0F0F0"/>
<path d="M271.935 10.9327C268.774 28.3044 271.122 46.8021 278.806 62.7179C280.468 66.1589 282.451 69.5044 285.107 72.2718C287.717 74.9494 290.993 76.877 294.596 77.8542C297.937 78.8331 301.467 79.4462 304.513 81.223C307.724 83.0959 309.716 86.2385 310.492 89.8423C311.442 94.2516 310.756 98.7404 309.933 103.107C309.02 107.955 307.994 112.976 309.318 117.849C309.478 118.439 308.556 118.655 308.396 118.065C306.093 109.586 310.57 101.224 309.945 92.699C309.653 88.7212 308.164 84.8077 304.765 82.503C301.793 80.4876 298.153 79.8523 294.762 78.8905C291.201 77.8806 288.002 76.3379 285.281 73.779C282.497 71.1614 280.379 67.8867 278.637 64.5034C274.745 56.802 272.083 48.5342 270.75 40.0031C269.175 30.275 269.27 20.3482 271.03 10.6522C271.139 10.0521 272.043 10.3365 271.935 10.9327Z" fill="white"/>
<path d="M276.036 57.6768C273.169 58.599 270.068 58.4683 267.287 57.3081C264.507 56.1478 262.228 54.0336 260.857 51.3428C260.582 50.7974 261.414 50.3423 261.689 50.8885C262.961 53.3964 265.084 55.3656 267.675 56.4407C270.267 57.5159 273.156 57.626 275.821 56.7514C276.4 56.562 276.612 57.4884 276.036 57.6768V57.6768Z" fill="white"/>
<path d="M292.836 77.5818C295.702 72.1148 296.409 65.7648 294.816 59.7981C294.657 59.207 295.58 58.9916 295.738 59.582C297.384 65.7942 296.635 72.4008 293.641 78.0833C293.355 78.6248 292.552 78.1203 292.836 77.5818Z" fill="white"/>
<path d="M270.392 30.5837C271.575 30.4589 272.71 30.041 273.693 29.3676C274.675 28.6942 275.476 27.7863 276.023 26.7256C276.302 26.1808 277.105 26.6859 276.828 27.2271C276.218 28.3963 275.332 29.3978 274.248 30.1442C273.164 30.8907 271.914 31.3593 270.607 31.5091C270.485 31.5336 270.358 31.5106 270.253 31.4447C270.147 31.3788 270.07 31.275 270.038 31.1545C270.01 31.0318 270.032 30.903 270.098 30.7962C270.164 30.6893 270.27 30.6129 270.392 30.5837Z" fill="white"/>
<path d="M344.302 10.8854C344.137 11.2305 343.973 11.5757 343.812 11.9279C341.625 16.5797 339.819 21.402 338.41 26.3474C338.295 26.728 338.184 27.1155 338.081 27.4986C334.814 39.4495 333.786 51.9052 335.05 64.2325C335.557 69.1373 336.436 73.9963 337.678 78.7674C339.394 85.3564 341.777 92.3635 341.239 98.9428C341.191 99.6298 341.1 100.313 340.967 100.989L311.072 119.313C310.983 119.32 310.898 119.335 310.809 119.342L309.649 120.129C309.568 119.887 309.488 119.635 309.407 119.393C309.36 119.253 309.319 119.109 309.271 118.969C309.241 118.875 309.212 118.78 309.18 118.696C309.17 118.665 309.16 118.633 309.154 118.608C309.122 118.525 309.101 118.444 309.073 118.367C308.627 116.958 308.191 115.543 307.763 114.123C307.759 114.116 307.759 114.116 307.762 114.105C304.532 103.275 302.175 92.0791 301.587 80.8803C301.569 80.5433 301.547 80.1997 301.543 79.8544C301.306 74.805 301.48 69.7446 302.064 64.7237C302.393 61.9754 302.86 59.2456 303.464 56.5448C305.037 49.5691 307.694 42.8853 311.338 36.7382C318.602 24.4852 329.691 14.7001 343.262 11.1467C343.609 11.056 343.95 10.9692 344.302 10.8854Z" fill="#F0F0F0"/>
<path d="M344.466 11.3073C331.519 23.2676 322.296 39.456 318.882 56.8064C318.144 60.5575 317.721 64.4272 318.181 68.2415C318.658 71.9559 320.118 75.4744 322.408 78.4314C324.488 81.2316 326.939 83.8541 328.305 87.113C329.745 90.548 329.45 94.2609 327.908 97.6072C326.02 101.702 322.78 104.871 319.503 107.86C315.865 111.179 312.034 114.569 310.167 119.26C309.941 119.828 309.075 119.443 309.301 118.875C312.549 110.714 321.142 106.742 325.757 99.5574C327.91 96.2049 329.07 92.1809 327.739 88.2873C326.575 84.8825 324.049 82.1759 321.919 79.359C319.681 76.4011 318.053 73.2372 317.416 69.5499C316.764 65.778 317.037 61.8836 317.676 58.13C319.189 49.6291 322.024 41.4197 326.078 33.8026C330.657 25.0836 336.689 17.2147 343.912 10.5366C344.359 10.1235 344.91 10.8968 344.466 11.3073V11.3073Z" fill="white"/>
<path d="M319.696 51.108C316.853 50.1118 314.455 48.134 312.931 45.5278C311.407 42.9215 310.856 39.8566 311.376 36.8802C311.484 36.2783 312.421 36.4174 312.313 37.0201C311.824 39.7907 312.337 42.6457 313.761 45.0698C315.186 47.4938 317.426 49.3272 320.079 50.239C320.655 50.4378 320.269 51.3057 319.696 51.108Z" fill="white"/>
<path d="M321.167 77.1511C326.735 74.5172 331.109 69.8741 333.417 64.1476C333.646 63.5801 334.511 63.9654 334.283 64.5322C331.871 70.4868 327.309 75.3094 321.509 78.0375C320.956 78.2972 320.617 77.4093 321.167 77.1511Z" fill="white"/>
<path d="M331.444 26.0656C332.464 26.681 333.62 27.0326 334.809 27.0888C335.998 27.145 337.182 26.904 338.255 26.3874C338.805 26.1209 339.142 27.009 338.597 27.2738C337.408 27.839 336.1 28.1036 334.787 28.0445C333.473 27.9853 332.194 27.6043 331.061 26.9346C330.949 26.8804 330.861 26.7855 330.817 26.6691C330.772 26.5527 330.773 26.4235 330.819 26.3078C330.871 26.193 330.965 26.1031 331.082 26.0578C331.199 26.0124 331.329 26.0152 331.444 26.0656Z" fill="white"/>
<path d="M87.3218 200.924H315.053V68.622C315.052 67.6307 314.659 66.6804 313.961 65.9794C313.262 65.2785 312.315 64.8842 311.327 64.8831H91.0478C90.06 64.8842 89.1129 65.2785 88.4144 65.9794C87.7159 66.6804 87.3229 67.6307 87.3218 68.622V200.924Z" fill="#CACACA"/>
<path d="M308.017 70.0543H94.3579V191.775H308.017V70.0543Z" fill="white"/>
<path d="M87.1235 197.344V213.67C87.1235 214.347 87.2564 215.017 87.5145 215.643C87.7726 216.268 88.1509 216.836 88.6278 217.315C89.1047 217.793 89.6709 218.173 90.294 218.432C90.9172 218.691 91.585 218.824 92.2595 218.824H176.313V251.045H175.197C175.109 251.045 175.022 251.062 174.941 251.095C174.86 251.129 174.787 251.178 174.725 251.241C174.663 251.303 174.614 251.377 174.58 251.458C174.547 251.539 174.53 251.626 174.53 251.714V253.955C174.53 254.043 174.547 254.13 174.58 254.211C174.614 254.293 174.663 254.366 174.725 254.428C174.787 254.491 174.86 254.54 174.941 254.574C175.022 254.607 175.109 254.625 175.197 254.625H227.376C227.464 254.625 227.551 254.607 227.632 254.574C227.713 254.54 227.786 254.491 227.848 254.428C227.91 254.366 227.959 254.293 227.993 254.211C228.026 254.13 228.043 254.043 228.043 253.955V251.714C228.043 251.626 228.026 251.539 227.993 251.458C227.959 251.377 227.91 251.303 227.848 251.241C227.786 251.178 227.713 251.129 227.632 251.095C227.551 251.062 227.464 251.045 227.376 251.045H226.26V218.824H310.314C310.988 218.824 311.656 218.691 312.279 218.432C312.902 218.173 313.468 217.793 313.945 217.315C314.422 216.836 314.8 216.268 315.059 215.643C315.317 215.017 315.449 214.347 315.449 213.67V197.344L87.1235 197.344Z" fill="#3F3D56"/>
<path d="M160.796 130.25H108.728C108.366 130.249 108.018 130.105 107.761 129.847C107.505 129.59 107.36 129.241 107.36 128.876V107.676C107.36 107.312 107.505 106.963 107.761 106.706C108.018 106.448 108.366 106.303 108.728 106.303H160.796C161.159 106.303 161.506 106.448 161.763 106.706C162.02 106.963 162.164 107.312 162.164 107.676V128.876C162.164 129.241 162.02 129.59 161.763 129.847C161.506 130.105 161.159 130.249 160.796 130.25Z" fill="#008493"/>
<path d="M155.838 140.42H113.686C113.251 140.42 112.833 140.246 112.525 139.937C112.217 139.628 112.044 139.209 112.044 138.772C112.044 138.335 112.217 137.915 112.525 137.606C112.833 137.297 113.251 137.124 113.686 137.124H155.838C157.956 137.094 157.977 140.45 155.838 140.42Z" fill="#E4E4E4"/>
<path d="M155.838 147.973H113.686C113.251 147.973 112.833 147.799 112.525 147.49C112.217 147.181 112.044 146.762 112.044 146.325C112.044 145.888 112.217 145.469 112.525 145.16C112.833 144.851 113.251 144.677 113.686 144.677H155.838C157.956 144.647 157.977 148.003 155.838 147.973Z" fill="#E4E4E4"/>
<path d="M155.838 155.526H113.686C113.251 155.526 112.833 155.353 112.525 155.044C112.217 154.735 112.044 154.315 112.044 153.878C112.044 153.441 112.217 153.022 112.525 152.713C112.833 152.404 113.251 152.23 113.686 152.23H155.838C157.956 152.201 157.977 155.556 155.838 155.526Z" fill="#E4E4E4"/>
<path d="M227.221 130.25H175.154C174.791 130.249 174.443 130.105 174.186 129.847C173.93 129.59 173.786 129.241 173.785 128.876V107.676C173.786 107.312 173.93 106.963 174.186 106.706C174.443 106.448 174.791 106.303 175.154 106.303H227.221C227.584 106.303 227.932 106.448 228.188 106.706C228.445 106.963 228.589 107.312 228.59 107.676V128.876C228.589 129.241 228.445 129.59 228.188 129.847C227.932 130.105 227.584 130.249 227.221 130.25Z" fill="#008493"/>
<path d="M222.263 140.42H180.112C179.676 140.42 179.258 140.246 178.95 139.937C178.642 139.628 178.469 139.209 178.469 138.772C178.469 138.335 178.642 137.915 178.95 137.606C179.258 137.297 179.676 137.124 180.112 137.124H222.263C224.381 137.094 224.402 140.45 222.263 140.42Z" fill="#E4E4E4"/>
<path d="M222.263 147.973H180.112C179.676 147.973 179.258 147.799 178.95 147.49C178.642 147.181 178.469 146.762 178.469 146.325C178.469 145.888 178.642 145.469 178.95 145.16C179.258 144.851 179.676 144.677 180.112 144.677H222.263C224.381 144.647 224.402 148.003 222.263 147.973Z" fill="#E4E4E4"/>
<path d="M222.263 155.526H180.112C179.676 155.526 179.258 155.353 178.95 155.044C178.642 154.735 178.469 154.315 178.469 153.878C178.469 153.441 178.642 153.022 178.95 152.713C179.258 152.404 179.676 152.23 180.112 152.23H222.263C224.381 152.201 224.402 155.556 222.263 155.526Z" fill="#E4E4E4"/>
<path d="M293.647 130.25H241.579C241.217 130.249 240.869 130.105 240.612 129.847C240.356 129.59 240.211 129.241 240.211 128.876V107.676C240.211 107.312 240.356 106.963 240.612 106.706C240.869 106.448 241.217 106.303 241.579 106.303H293.647C294.01 106.303 294.357 106.448 294.614 106.706C294.871 106.963 295.015 107.312 295.015 107.676V128.876C295.015 129.241 294.871 129.59 294.614 129.847C294.357 130.105 294.01 130.249 293.647 130.25Z" fill="#008493"/>
<path d="M288.689 140.42H246.537C246.102 140.42 245.684 140.246 245.376 139.937C245.068 139.628 244.895 139.209 244.895 138.772C244.895 138.335 245.068 137.915 245.376 137.606C245.684 137.297 246.102 137.124 246.537 137.124H288.689C290.807 137.094 290.828 140.45 288.689 140.42Z" fill="#E4E4E4"/>
<path d="M288.689 147.973H246.537C246.102 147.972 245.685 147.798 245.378 147.489C245.071 147.18 244.898 146.762 244.898 146.325C244.898 145.888 245.071 145.47 245.378 145.161C245.685 144.852 246.102 144.678 246.537 144.677H288.689C290.807 144.647 290.828 148.003 288.689 147.973Z" fill="#E4E4E4"/>
<path d="M288.689 155.526H246.537C246.102 155.526 245.684 155.353 245.376 155.044C245.068 154.735 244.895 154.315 244.895 153.878C244.895 153.441 245.068 153.022 245.376 152.713C245.684 152.404 246.102 152.23 246.537 152.23H288.689C290.807 152.201 290.828 155.556 288.689 155.526Z" fill="#E4E4E4"/>
<path d="M382.618 106.589L382.76 133.162L383.341 133.129L383.892 142.967L382.815 143.026L382.845 148.937L383.707 148.919L383.882 158.766L382.9 158.784L383.368 245.495C383.378 247.766 382.49 249.948 380.899 251.562C379.308 253.176 377.143 254.091 374.881 254.105L279.429 254.624C277.166 254.635 274.992 253.744 273.383 252.147C271.774 250.55 270.863 248.378 270.848 246.108L270.099 107.202C270.089 104.931 270.977 102.749 272.568 101.135C274.159 99.5209 276.323 98.6061 278.586 98.5915L374.038 98.0725C376.3 98.0631 378.474 98.9544 380.082 100.551C381.691 102.147 382.603 104.319 382.618 106.589Z" fill="#3F3D56"/>
<path d="M375.019 248.643L279.23 249.164C278.533 249.167 277.863 248.892 277.367 248.4C276.871 247.908 276.59 247.238 276.586 246.538L275.83 106.709C275.827 106.009 276.101 105.337 276.591 104.839C277.082 104.342 277.749 104.06 278.446 104.055L374.235 103.534C374.932 103.531 375.602 103.805 376.098 104.298C376.594 104.79 376.875 105.459 376.879 106.159L377.635 245.989C377.638 246.688 377.364 247.361 376.874 247.858C376.383 248.356 375.716 248.638 375.019 248.643Z" fill="white"/>
<path d="M325.962 101.684C326.363 101.684 326.688 101.358 326.688 100.955C326.688 100.553 326.363 100.227 325.962 100.227C325.561 100.227 325.236 100.553 325.236 100.955C325.236 101.358 325.561 101.684 325.962 101.684Z" fill="white"/>
<path d="M354.452 142.891H299.013C298.627 142.891 298.256 142.736 297.983 142.462C297.71 142.188 297.556 141.817 297.556 141.429V118.856C297.556 118.468 297.71 118.096 297.983 117.822C298.256 117.548 298.627 117.394 299.013 117.393H354.452C354.838 117.394 355.209 117.548 355.482 117.822C355.755 118.096 355.909 118.468 355.909 118.856V141.429C355.909 141.817 355.755 142.188 355.482 142.462C355.209 142.736 354.838 142.891 354.452 142.891Z" fill="#008493"/>
<path d="M349.174 153.72H304.292C303.828 153.72 303.384 153.535 303.056 153.206C302.728 152.877 302.543 152.43 302.543 151.965C302.543 151.5 302.728 151.053 303.056 150.724C303.384 150.395 303.828 150.21 304.292 150.21H349.174C351.429 150.179 351.451 153.752 349.174 153.72Z" fill="#E4E4E4"/>
<path d="M349.173 161.762H304.292C303.828 161.761 303.384 161.576 303.057 161.247C302.73 160.918 302.546 160.472 302.546 160.007C302.546 159.542 302.73 159.097 303.057 158.768C303.384 158.439 303.828 158.253 304.292 158.253H349.173C351.428 158.221 351.451 161.794 349.173 161.762Z" fill="#E4E4E4"/>
<path d="M349.174 169.805H304.292C303.828 169.805 303.384 169.62 303.056 169.291C302.728 168.962 302.543 168.515 302.543 168.05C302.543 167.584 302.728 167.138 303.056 166.809C303.384 166.48 303.828 166.295 304.292 166.295H349.174C351.429 166.264 351.451 169.836 349.174 169.805Z" fill="#E4E4E4"/>
<path d="M354.452 208.39H299.013C298.627 208.39 298.256 208.236 297.983 207.962C297.71 207.688 297.556 207.316 297.556 206.928V184.355C297.556 183.967 297.71 183.596 297.983 183.321C298.256 183.047 298.627 182.893 299.013 182.893H354.452C354.838 182.893 355.209 183.047 355.482 183.321C355.755 183.596 355.909 183.967 355.909 184.355V206.928C355.909 207.316 355.755 207.688 355.482 207.962C355.209 208.236 354.838 208.39 354.452 208.39Z" fill="#008493"/>
<path d="M349.174 219.219H304.292C303.828 219.219 303.384 219.034 303.056 218.705C302.728 218.376 302.543 217.93 302.543 217.464C302.543 216.999 302.728 216.553 303.056 216.223C303.384 215.894 303.828 215.71 304.292 215.71H349.174C351.429 215.678 351.451 219.251 349.174 219.219Z" fill="#E4E4E4"/>
<path d="M349.173 227.261H304.292C303.828 227.261 303.384 227.075 303.057 226.746C302.73 226.417 302.546 225.972 302.546 225.507C302.546 225.042 302.73 224.596 303.057 224.267C303.384 223.938 303.828 223.753 304.292 223.752H349.173C351.428 223.72 351.451 227.293 349.173 227.261Z" fill="#E4E4E4"/>
<path d="M349.174 235.304H304.292C303.828 235.304 303.384 235.119 303.056 234.79C302.728 234.461 302.543 234.015 302.543 233.549C302.543 233.084 302.728 232.638 303.056 232.308C303.384 231.979 303.828 231.795 304.292 231.795H349.174C351.429 231.763 351.451 235.336 349.174 235.304Z" fill="#E4E4E4"/>
<path d="M108.129 247.801L107.944 171.223L108.64 171.221L108.607 157.136L107.911 157.138L107.854 133.626C107.852 132.748 107.677 131.879 107.341 131.068C107.004 130.258 106.511 129.522 105.891 128.902C105.271 128.283 104.535 127.792 103.726 127.458C102.916 127.124 102.049 126.953 101.174 126.955L51.5846 127.075C50.7095 127.077 49.8434 127.252 49.0357 127.59C48.228 127.928 47.4946 128.423 46.8773 129.045C46.26 129.667 45.7709 130.406 45.4379 131.218C45.1049 132.03 44.9346 132.9 44.9367 133.778L44.9762 150.172L43.8682 150.2L44.1129 160.047L44.9999 160.025L45.0052 162.198L44.0612 162.222L44.3059 172.069L45.0289 172.051L45.2117 247.953C45.2121 248.832 45.3855 249.702 45.7217 250.513C46.058 251.325 46.5505 252.061 47.1712 252.681C47.7918 253.301 48.5282 253.791 49.3382 254.125C50.1483 254.459 51.016 254.628 51.8915 254.625L101.481 254.504C103.248 254.498 104.94 253.789 106.186 252.532C107.432 251.276 108.131 249.574 108.129 247.801Z" fill="#3F3D56"/>
<path d="M50.375 251.56C49.7566 251.337 49.2215 250.928 48.8426 250.39C48.4637 249.851 48.2593 249.208 48.2572 248.549L47.9795 133.168C47.9775 132.318 48.312 131.503 48.9094 130.9C49.5068 130.298 50.3181 129.958 51.1649 129.956L61.716 129.931L61.5853 130.254C61.3587 130.815 61.2731 131.424 61.3362 132.027C61.3992 132.629 61.6089 133.206 61.9468 133.708C62.2846 134.21 62.7403 134.621 63.2737 134.905C63.8071 135.188 64.4017 135.336 65.0053 135.334L88.4213 135.277C89.0042 135.226 89.5669 135.039 90.064 134.729C90.561 134.419 90.9784 133.996 91.2824 133.495C91.5821 133.002 91.7613 132.445 91.8054 131.869C91.8496 131.293 91.7575 130.715 91.5366 130.182L91.4045 129.859L102.303 129.832C103.15 129.831 103.962 130.167 104.562 130.767C105.162 131.366 105.501 132.179 105.504 133.029L105.769 243.112C105.772 245.366 104.884 247.529 103.299 249.127C101.714 250.724 99.5629 251.626 97.3166 251.634L51.4581 251.745C51.0891 251.747 50.7227 251.684 50.375 251.56Z" fill="white"/>
<path d="M68.4403 132.666C68.8412 132.666 69.1663 132.339 69.1663 131.937C69.1663 131.535 68.8412 131.209 68.4403 131.209C68.0394 131.209 67.7144 131.535 67.7144 131.937C67.7144 132.339 68.0394 132.666 68.4403 132.666Z" fill="white"/>
<path d="M96.5024 168.126H58.8272C58.5646 168.125 58.3129 168.02 58.1273 167.834C57.9417 167.648 57.8372 167.395 57.8369 167.132V151.792C57.8372 151.528 57.9417 151.275 58.1273 151.089C58.3129 150.903 58.5646 150.798 58.8272 150.798H96.5024C96.7649 150.798 97.0166 150.903 97.2023 151.089C97.3879 151.275 97.4923 151.528 97.4926 151.792V167.132C97.4923 167.395 97.3879 167.648 97.2023 167.834C97.0166 168.02 96.7649 168.125 96.5024 168.126Z" fill="#008493"/>
<path d="M92.9152 175.484H62.4148C62.2586 175.485 62.1038 175.454 61.9593 175.394C61.8149 175.334 61.6836 175.247 61.573 175.136C61.4624 175.025 61.3747 174.894 61.3148 174.749C61.2549 174.604 61.2241 174.449 61.2241 174.292C61.2241 174.135 61.2549 173.98 61.3148 173.835C61.3747 173.69 61.4624 173.559 61.573 173.448C61.6836 173.337 61.8149 173.249 61.9593 173.189C62.1038 173.13 62.2586 173.099 62.4148 173.099H92.9152C94.4477 173.078 94.463 175.506 92.9152 175.484Z" fill="#E4E4E4"/>
<path d="M92.9153 180.95H62.4149C62.0997 180.95 61.7975 180.824 61.5746 180.601C61.3518 180.377 61.2266 180.074 61.2266 179.757C61.2266 179.441 61.3518 179.138 61.5746 178.914C61.7975 178.69 62.0997 178.565 62.4149 178.565H92.9153C94.4478 178.543 94.4631 180.971 92.9153 180.95Z" fill="#E4E4E4"/>
<path d="M92.9152 186.415H62.4148C62.2586 186.416 62.1038 186.385 61.9593 186.325C61.8149 186.265 61.6836 186.178 61.573 186.067C61.4624 185.956 61.3747 185.825 61.3148 185.68C61.2549 185.535 61.2241 185.38 61.2241 185.223C61.2241 185.066 61.2549 184.911 61.3148 184.766C61.3747 184.621 61.4624 184.49 61.573 184.379C61.6836 184.268 61.8149 184.18 61.9593 184.121C62.1038 184.061 62.2586 184.03 62.4148 184.03H92.9152C94.4477 184.009 94.463 186.437 92.9152 186.415Z" fill="#E4E4E4"/>
<path d="M96.5024 214.095H58.8272C58.5646 214.095 58.3129 213.99 58.1273 213.804C57.9417 213.617 57.8372 213.365 57.8369 213.101V197.761C57.8372 197.498 57.9417 197.245 58.1273 197.059C58.3129 196.872 58.5646 196.768 58.8272 196.767H96.5024C96.7649 196.768 97.0166 196.872 97.2023 197.059C97.3879 197.245 97.4923 197.498 97.4926 197.761V213.101C97.4923 213.365 97.3879 213.617 97.2023 213.804C97.0166 213.99 96.7649 214.095 96.5024 214.095Z" fill="#008493"/>
<path d="M92.9152 221.454H62.4148C62.2586 221.454 62.1038 221.424 61.9593 221.364C61.8149 221.304 61.6836 221.216 61.573 221.105C61.4624 220.995 61.3747 220.863 61.3148 220.718C61.2549 220.573 61.2241 220.418 61.2241 220.261C61.2241 220.105 61.2549 219.949 61.3148 219.804C61.3747 219.66 61.4624 219.528 61.573 219.417C61.6836 219.307 61.8149 219.219 61.9593 219.159C62.1038 219.099 62.2586 219.069 62.4148 219.069H92.9152C94.4477 219.047 94.463 221.475 92.9152 221.454Z" fill="#E4E4E4"/>
<path d="M92.9153 226.919H62.4149C62.0997 226.919 61.7975 226.794 61.5746 226.57C61.3518 226.346 61.2266 226.043 61.2266 225.727C61.2266 225.411 61.3518 225.107 61.5746 224.884C61.7975 224.66 62.0997 224.534 62.4149 224.534H92.9153C94.4478 224.513 94.4631 226.941 92.9153 226.919Z" fill="#E4E4E4"/>
<path d="M92.9152 232.385H62.4148C62.2586 232.385 62.1038 232.355 61.9593 232.295C61.8149 232.235 61.6836 232.147 61.573 232.036C61.4624 231.926 61.3747 231.794 61.3148 231.649C61.2549 231.504 61.2241 231.349 61.2241 231.192C61.2241 231.036 61.2549 230.88 61.3148 230.735C61.3747 230.591 61.4624 230.459 61.573 230.348C61.6836 230.238 61.8149 230.15 61.9593 230.09C62.1038 230.03 62.2586 230 62.4148 230H92.9152C94.4477 229.978 94.463 232.407 92.9152 232.385Z" fill="#E4E4E4"/>
<path d="M12.2827 250.434L16.3766 250.433L18.324 234.589H12.2817L12.2827 250.434Z" fill="#A0616A"/>
<path d="M11.2383 249.093L12.3905 249.093L16.8892 247.257L19.3003 249.092H19.3007C20.6632 249.092 21.97 249.636 22.9335 250.602C23.897 251.569 24.4383 252.881 24.4384 254.248V254.415L11.2385 254.416L11.2383 249.093Z" fill="#2F2E41"/>
<path d="M28.147 247.845L32.1399 248.75L37.5179 233.725L31.6243 232.389L28.147 247.845Z" fill="#A0616A"/>
<path d="M27.4227 246.306L28.5467 246.561L33.3378 245.764L35.2868 248.088L35.2871 248.088C36.6162 248.389 37.7716 249.208 38.4992 250.364C39.2268 251.52 39.467 252.919 39.167 254.252L39.1302 254.416L26.2544 251.499L27.4227 246.306Z" fill="#2F2E41"/>
<path d="M7.09757 153.565C5.17823 159.374 5.38114 165.679 7.55891 172.446L8.48987 210.549C8.48987 210.549 7.10282 235.535 11.5786 244.328H18.0696L21.2835 208.267L21.6871 184.062L35.6033 204.483L26.7396 243.738L34.7286 244.455L49.1119 201.854L31.3657 160.523L7.09757 153.565Z" fill="#2F2E41"/>
<path d="M32.5231 161.743L8.92004 157.954C8.30101 157.756 7.73221 157.425 7.25269 156.984C6.77317 156.544 6.39429 156.005 6.14207 155.403C5.88984 154.802 5.77024 154.153 5.79147 153.501C5.8127 152.849 5.97426 152.21 6.26506 151.627L7.33544 149.478L6.91966 126.906C6.86954 123.97 7.59087 121.072 9.01107 118.505C10.4313 115.937 12.5003 113.79 15.0099 112.28L17.3116 110.899L18.4748 107.934L29.2009 108.197L29.2321 112.085L33.0734 118.231L33.0732 118.257L32.8322 151.712L31.7736 155.165L33.3743 159.18L32.5231 161.743Z" fill="#3F3D56"/>
<path d="M24.8204 104.248C30.2028 104.248 34.5661 99.8699 34.5661 94.4687C34.5661 89.0675 30.2028 84.689 24.8204 84.689C19.438 84.689 15.0747 89.0675 15.0747 94.4687C15.0747 99.8699 19.438 104.248 24.8204 104.248Z" fill="#A0616A"/>
<path d="M14.6725 96.6006C14.3818 95.3718 14.5152 93.6426 14.6795 92.4053C14.8899 90.7738 15.4395 89.2048 16.2928 87.8001C17.1461 86.3953 18.2839 85.1862 19.6327 84.251C20.1498 83.8568 20.7643 83.6118 21.41 83.5422C21.7327 83.5149 22.0558 83.5908 22.3329 83.759C22.61 83.9272 22.8269 84.1791 22.9527 84.4786C23.1152 84.0715 23.3592 83.7021 23.6695 83.3933C23.9798 83.0845 24.3499 82.8428 24.7569 82.6832C25.5746 82.3688 26.4539 82.2499 27.3253 82.3359C29.0143 82.4757 30.634 83.0716 32.0127 84.0606C33.3914 85.0495 34.4776 86.3946 35.1559 87.953C35.4162 88.5735 36.1433 86.2814 36.4731 86.8678C36.7762 87.4772 37.305 87.9434 37.9463 88.1666C38.5925 88.3476 38.855 91.0194 39.1093 90.3964C39.3066 90.8568 39.3846 91.3599 39.336 91.8587C39.2875 92.3576 39.1138 92.836 38.8314 93.2493C38.549 93.6627 38.1669 93.9976 37.7207 94.2229C37.2745 94.4482 36.7788 94.5565 36.2797 94.5378C35.6272 94.4531 34.9805 94.3289 34.343 94.1658C33.1725 94.0178 31.9885 94.3049 31.0145 94.973C30.0406 95.6411 29.3441 96.6439 29.0565 97.7921C28.8786 97.1244 28.5945 96.49 28.215 95.9132C28.0223 95.6263 27.7642 95.3898 27.4621 95.2232C27.16 95.0566 26.8226 94.9649 26.478 94.9555C26.1486 94.9934 25.8304 95.0985 25.543 95.2643C25.2555 95.4301 25.0049 95.6532 24.8065 95.9197C24.3774 96.4252 24.0552 97.0151 23.623 97.5179C22.3547 98.9932 20.6394 102.434 18.8321 102.183C17.4058 101.985 15.0693 98.2785 14.6725 96.6006Z" fill="#2F2E41"/>
<path d="M61.1516 154.604C60.7368 154.785 60.2875 154.873 59.8355 154.86C59.3834 154.848 58.9395 154.737 58.5351 154.534C58.1306 154.331 57.7754 154.041 57.4945 153.685C57.2137 153.33 57.0139 152.917 56.9094 152.475L45.9722 151.366L49.5805 146.922L59.4134 148.656C60.1642 148.529 60.9354 148.683 61.5808 149.088C62.2262 149.494 62.701 150.123 62.9152 150.856C63.1295 151.589 63.0683 152.375 62.7432 153.066C62.4182 153.757 61.8519 154.305 61.1516 154.604Z" fill="#A0616A"/>
<path d="M54.4242 152.841L28.9004 150.482L28.8653 150.441L10.2373 129.022C9.01142 127.138 8.54984 124.854 8.94713 122.639C9.34441 120.424 10.5705 118.445 12.3743 117.107C13.3724 116.369 14.515 115.851 15.7268 115.588C16.9386 115.325 18.1922 115.323 19.4051 115.581C20.618 115.839 21.7627 116.352 22.7638 117.086C23.765 117.82 24.5998 118.758 25.2134 119.839L36.6868 140.056L54.7054 147.321L54.4242 152.841Z" fill="#3F3D56"/>
<path d="M449.444 255H0.556922C0.409587 254.999 0.268431 254.94 0.1644 254.836C0.0603687 254.731 0.00195312 254.589 0.00195312 254.441C0.00195312 254.294 0.0603687 254.152 0.1644 254.047C0.268431 253.942 0.409587 253.883 0.556922 253.883H449.444C449.591 253.883 449.733 253.942 449.837 254.047C449.942 254.151 450 254.293 450 254.441C450 254.59 449.942 254.732 449.837 254.836C449.733 254.941 449.591 255 449.444 255Z" fill="#CCCCCC"/>
<path d="M371.379 155.169C371.796 155.209 372.217 155.157 372.611 155.017C373.006 154.876 373.365 154.651 373.663 154.356C373.961 154.061 374.191 153.704 374.337 153.31C374.483 152.917 374.541 152.496 374.508 152.077L383.821 147.962L379.378 145.085L371.215 149.433C370.518 149.537 369.883 149.894 369.43 150.436C368.977 150.978 368.738 151.668 368.759 152.375C368.779 153.082 369.057 153.756 369.54 154.272C370.023 154.787 370.677 155.106 371.379 155.169V155.169Z" fill="#FFB6B6"/>
<path d="M376.855 151.142L375.202 145.363L391.943 136.935L401.819 117.839C402.307 116.895 402.996 116.07 403.838 115.424C404.679 114.777 405.652 114.325 406.687 114.098C407.723 113.871 408.795 113.876 409.828 114.112C410.862 114.348 411.831 114.809 412.666 115.463C414.174 116.646 415.153 118.381 415.388 120.287C415.623 122.193 415.095 124.115 413.92 125.631L399.07 144.74L376.855 151.142Z" fill="#E4E4E4"/>
</g>
<defs>
<clipPath id="clip0_181:768">
<rect width="450" height="255" fill="white"/>
</clipPath>
</defs>
</svg>
